



The tale begins with Basya (vijay) who is an orphan but then he is taken by a bus driver (Satyajit) and conductor (Kashi). In no time, Basya becomes the most sought after person and he is liked by all in the surroundings. The story takes a turn when Bhageerathi (shubha) gets attracted to the goodness in Basya and falls in love with him. However, Basya keeps her at a distance but then she challenges him and in no time, Basya falls in love. However, Bhageerathi’s father Singarappa and his brother Veerabhadra get a whiff of the relationship and they are enraged. Veerabhadra goes to the extent of bashing Basya up and looking at all this, Basya also revolts. He challenges Singarappa that he will marry Bhageerathi and what happens from there forms the rest of the story


Banner : 24 Frames
Cast : Vijay, Shuba Punj, Srinivasamurthy, Avinash, Rangayana Raghu, Shobaraj, Kashi, Veena Sunder, Satyajith, Malathi Sardeshpande, Nanda, Rajasekhar
Music : Guru Kiran
Director : M.S. Ramesh
Producer : BV Pramod

Release Date : May 24, 2009 




Video 
Format : CDXA/MPEG-PS 
File size : 851 MiB 
Duration : 1h 25mn 
Overall bit rate : 1 412 Kbps 
ID : 224 (0xE0) 
Format : MPEG Video 
Format version : Version 1 
Format settings, BVOP : Yes 
Format settings, Matrix : Default 
Duration : 1h 25mn 
Bit rate mode : Constant 
Bit rate : 1 150 Kbps 
Width : 352 pixels 
Height : 288 pixels 
Display aspect ratio : 4:3 
Frame rate : 25.000 fps 
Standard : PAL 
Color space : YUV 
Bit depth : 8 bits 
Scan type : Progressive 
Compression mode : Lossy 
Bits/(Pixel*Frame) : 0.454 
Stream size : 699 MiB (82%) 
Writing library : (c) 1998-2006 Womble Multimedia, Inc. / MPEG Video Wizard (12/2006) / Dec 18 2006 

Audio
ID : 192 (0xC0) 
Format : MPEG Audio 
Format version : Version 1 
Format profile : Layer 2 
Duration : 1h 24mn 
Bit rate mode : Constant 
Bit rate : 224 Kbps 
Channel(s) : 2 channels 
Sampling rate : 44.1 KHz 
Compression mode : Lossy 
Delay relative to video : -80ms 
Stream size : 135 MiB (16%)


Screen 

 
http://savesnap.com/images/cd1.jpg
 
http://savesnap.com/images/cd2.jpg